# This file uses meters as units for non-parametric coordinates.

mtllib tempSkybox.mtl
g default
v -1250.000000 -24.084822 1250.000000
v 1250.000000 -24.084822 1250.000000
v -1250.000000 2475.914987 1250.000000
v 1250.000000 2475.914987 1250.000000
v -1250.000000 2475.914987 -1250.000000
v 1250.000000 2475.914987 -1250.000000
v -1250.000000 -24.084822 -1250.000000
v 1250.000000 -24.084822 -1250.000000
vt 0.496198 0.663748
vt 0.250350 0.663748
vt 0.250350 0.337827
vt 0.496198 0.337827
vt 0.252863 0.990990
vt 0.252863 0.665069
vt 0.498711 0.665069
vt 0.498711 0.990990
vt 0.995789 0.663660
vt 0.754712 0.665250
vt 0.749941 0.337740
vt 0.995789 0.337740
vt 0.253123 0.331021
vt 0.253123 0.005100
vt 0.498971 0.005100
vt 0.498971 0.331021
vt 0.499059 0.337019
vt 0.744907 0.337019
vt 0.749678 0.664529
vt 0.499059 0.662939
vt 0.003645 0.339357
vt 0.249493 0.339357
vt 0.249493 0.665277
vt 0.003645 0.665277
vn 0.000000 0.000000 -1.000000
vn 0.000000 0.000000 -1.000000
vn 0.000000 0.000000 -1.000000
vn 0.000000 0.000000 -1.000000
vn 0.000000 -1.000000 0.000000
vn 0.000000 -1.000000 0.000000
vn 0.000000 -1.000000 0.000000
vn 0.000000 -1.000000 0.000000
vn 0.000000 0.000000 1.000000
vn 0.000000 0.000000 1.000000
vn 0.000000 0.000000 1.000000
vn 0.000000 0.000000 1.000000
vn 0.000000 1.000000 0.000000
vn 0.000000 1.000000 0.000000
vn 0.000000 1.000000 0.000000
vn 0.000000 1.000000 0.000000
vn -1.000000 0.000000 0.000000
vn -1.000000 0.000000 0.000000
vn -1.000000 0.000000 0.000000
vn -1.000000 0.000000 0.000000
vn 1.000000 0.000000 0.000000
vn 1.000000 0.000000 0.000000
vn 1.000000 0.000000 0.000000
vn 1.000000 0.000000 0.000000
s off
g pCube1
usemtl initialShadingGroup
f 1/1/1 3/2/2 4/3/3 2/4/4
f 3/5/5 5/6/6 6/7/7 4/8/8
f 5/9/9 7/10/10 8/11/11 6/12/12
f 7/13/13 1/14/14 2/15/15 8/16/16
f 2/17/17 4/18/18 6/19/19 8/20/20
f 7/21/21 5/22/22 3/23/23 1/24/24
